<?xml version="1.0" standalone="no"?>
<!DOCTYPE svg PUBLIC "-//W3C//DTD SVG 20010904//EN"
 "http://www.w3.org/TR/2001/REC-SVG-20010904/DTD/svg10.dtd">
<svg version="1.0" xmlns="http://www.w3.org/2000/svg"
 width="1920.000000pt" height="1920.000000pt" viewBox="0 0 1920.000000 1920.000000"
 preserveAspectRatio="xMidYMid meet">

<g transform="translate(0.000000,1920.000000) scale(0.100000,-0.100000)"
fill="#000000" stroke="none">
<path d="M9390 14873 c-418 -41 -764 -147 -1093 -335 -710 -406 -1182 -1094
-1309 -1910 -31 -206 -31 -561 1 -767 91 -590 351 -1098 772 -1506 140 -136
219 -200 381 -308 431 -288 927 -437 1453 -437 445 0 861 103 1244 307 726
388 1219 1078 1363 1909 20 113 22 165 23 414 0 312 -8 389 -66 627 -266 1094
-1187 1890 -2318 2003 -95 9 -369 11 -451 3z"/>
<path d="M6285 8859 c-174 -23 -381 -86 -545 -169 -189 -94 -325 -195 -475
-352 -213 -222 -352 -471 -425 -762 -54 -214 -53 -188 -57 -1323 l-4 -1063
4815 0 4816 0 0 1038 c0 1121 -1 1140 -55 1351 -153 603 -638 1087 -1240 1240
-215 54 -24 51 -3526 50 -1823 -1 -3265 -5 -3304 -10z"/>
</g>
</svg>
