<?xml version="1.0" standalone="no"?>
<!DOCTYPE svg PUBLIC "-//W3C//DTD SVG 20010904//EN"
 "http://www.w3.org/TR/2001/REC-SVG-20010904/DTD/svg10.dtd">
<svg version="1.0" xmlns="http://www.w3.org/2000/svg"
 width="1024.000000pt" height="1024.000000pt" viewBox="0 0 1024.000000 1024.000000"
 preserveAspectRatio="xMidYMid meet">

<g transform="translate(0.000000,1024.000000) scale(0.100000,-0.100000)"
fill="#000000" stroke="none">
<path d="M2575 8711 c-191 -13 -318 -68 -418 -182 -83 -93 -124 -179 -146
-303 -6 -33 -11 -169 -11 -303 0 -240 0 -243 -21 -243 -30 0 -74 -28 -93 -60
-14 -25 -16 -76 -16 -438 0 -399 1 -410 21 -436 12 -16 38 -31 65 -37 l44 -11
0 -1092 0 -1092 -42 -10 c-32 -7 -48 -18 -65 -43 l-23 -34 0 -418 c0 -303 3
-425 12 -444 14 -30 55 -55 92 -55 l24 0 4 -277 c4 -270 5 -280 31 -359 35
-106 91 -190 169 -254 75 -63 77 -68 77 -260 1 -74 6 -152 12 -173 6 -22 9
-41 6 -43 -2 -2 -62 -6 -133 -8 -71 -2 -132 -5 -135 -5 -3 -1 -11 -13 -17 -27
-17 -36 0 -61 49 -74 48 -13 85 4 92 42 l4 23 2 -24 1 -23 148 8 c238 14 935
11 1115 -5 86 -8 160 -12 162 -9 3 3 6 22 8 44 l2 39 -115 6 c-63 4 -119 7
-123 8 -4 0 -2 11 5 24 8 14 15 76 18 167 l5 145 1620 -2 1620 -2 5 -153 c3
-84 8 -158 12 -164 6 -8 -38 -13 -155 -19 -211 -9 -209 -8 -205 -54 l3 -36 54
1 c29 1 56 6 60 10 10 14 31 15 31 2 0 -8 49 -9 198 -2 108 5 435 9 726 9
l528 0 34 -24 33 -23 35 22 c35 21 40 30 36 60 -4 33 -32 40 -152 40 l-118 0
5 37 c2 21 7 115 10 208 l6 170 63 65 c83 87 128 145 158 205 47 94 53 141 53
423 l0 262 23 0 c35 0 89 26 101 48 14 26 15 850 1 886 -12 32 -46 55 -88 58
l-32 2 -2 1013 c-1 557 -3 1052 -3 1101 l0 87 42 6 c25 3 53 15 68 29 l25 23
0 419 c0 454 -1 461 -55 486 -14 7 -38 12 -53 12 l-27 0 0 278 c0 239 -2 285
-18 337 -43 140 -170 296 -290 354 -137 67 69 62 -2617 66 -1339 1 -2484 0
-2545 -4z m5078 -180 c79 -38 159 -115 200 -190 47 -85 57 -160 57 -423 l0
-238 -87 0 -88 0 3 170 c4 181 -7 288 -38 356 -25 57 -92 128 -145 154 l-44
21 -2477 0 -2476 -1 -53 -24 c-72 -33 -126 -84 -161 -153 l-29 -58 -3 -232 -4
-233 -84 0 -84 0 0 249 c0 136 5 273 10 302 29 155 149 280 309 325 37 10 553
12 2586 11 l2540 -2 68 -34z m-140 -314 c21 -16 47 -47 59 -70 21 -39 23 -58
26 -257 l4 -215 -64 -1 c-77 0 -117 -20 -158 -76 l-30 -41 0 -359 c0 -389 0
-386 57 -440 38 -36 78 -50 136 -47 l47 3 3 -1107 3 -1107 -60 0 c-79 0 -140
-34 -167 -93 -17 -39 -19 -71 -19 -400 0 -396 0 -399 64 -455 43 -38 73 -47
131 -39 l43 6 7 -183 c11 -264 0 -318 -72 -373 l-36 -28 -2446 -3 c-1345 -1
-2455 0 -2467 2 -11 3 -37 22 -57 43 -58 57 -67 104 -67 335 l0 198 68 0 c78
0 124 24 161 84 21 34 22 41 19 408 -3 356 -4 375 -24 413 -32 62 -74 85 -155
85 l-69 0 0 1106 0 1106 43 -2 c81 -5 96 -1 138 38 69 62 69 60 69 452 0 329
-1 353 -20 389 -28 56 -77 83 -161 89 l-70 5 3 216 c3 197 5 220 24 256 22 42
66 74 115 84 17 3 1123 6 2458 6 l2428 0 36 -28z m535 -917 c2 -135 0 -291 -3
-347 l-7 -103 -144 0 -144 0 0 278 c0 152 3 307 6 344 l7 67 111 4 c61 2 125
3 141 3 l30 -1 3 -245z m-5748 -105 l0 -345 -145 0 -145 0 0 345 0 345 145 0
145 0 0 -345z m248 -2 l2 -343 -60 0 -60 0 0 253 c0 140 -3 295 -7 346 l-6 92
64 -3 64 -3 3 -342z m5064 320 c1 -16 3 -171 3 -345 l0 -318 -50 0 c-27 0 -55
4 -62 8 -8 5 -12 93 -13 322 -1 173 -1 323 -1 332 1 12 12 18 39 21 83 8 82 9
84 -20z m-5303 -1916 l1 -1088 -82 3 -83 3 -3 1097 -2 1097 77 3 c62 2 79 0
85 -12 4 -8 7 -505 7 -1103z m5595 1076 c7 -58 8 -2095 0 -2138 l-5 -30 -77 3
c-42 2 -79 6 -81 8 -8 7 -13 1504 -6 1836 l7 357 62 4 c33 2 68 4 77 5 12 2
18 -10 23 -45z m-5606 -2657 l2 -356 -77 0 c-43 0 -108 -3 -145 -7 l-68 -6 0
360 c0 198 2 362 4 364 2 2 67 3 143 2 l138 -2 3 -355z m249 340 c1 -1 3 -159
5 -351 l3 -350 -62 -3 -63 -3 0 359 0 359 58 -5 c31 -2 58 -5 59 -6z m5068
-77 c7 -102 -3 -611 -14 -620 -3 -3 -30 -4 -59 -1 l-52 4 2 346 3 346 25 7
c14 4 39 7 56 8 l31 1 8 -91z m429 67 c5 -20 -2 -678 -7 -682 -1 -1 -66 -4
-145 -6 l-142 -3 0 357 1 358 143 0 c143 0 144 0 150 -24z m-135 -1081 c1
-236 -10 -311 -54 -401 -51 -104 -111 -167 -204 -212 l-76 -37 -2505 -3
c-1654 -1 -2523 1 -2560 8 -125 23 -244 109 -308 223 -56 100 -63 144 -60 423
l3 248 83 1 82 1 0 -212 c0 -246 11 -298 79 -388 31 -42 57 -62 111 -90 l71
-35 2433 0 2434 -1 68 21 c54 17 77 31 119 72 28 29 63 77 78 107 26 54 27 62
34 288 l6 232 51 1 c28 1 62 4 76 8 23 7 26 4 32 -33 3 -23 7 -122 7 -221z
m-5414 -787 c22 -5 199 -10 392 -11 l353 -2 0 -107 c0 -58 -3 -113 -6 -122 -5
-14 -50 -16 -394 -16 -348 0 -389 2 -401 17 -10 11 -15 54 -17 141 -4 118 -3
124 15 117 10 -4 36 -12 58 -17z m5134 -117 c-2 -71 -8 -133 -12 -138 -5 -4
-191 -7 -415 -6 -382 1 -407 2 -419 20 -10 13 -13 46 -11 123 l3 105 395 2
c245 0 404 5 420 11 14 6 29 11 34 11 4 1 6 -57 5 -128z"/>
<path d="M2787 8072 c-10 -10 -17 -24 -17 -31 0 -19 122 -152 148 -162 50 -19
88 37 61 88 -20 38 -126 123 -153 123 -13 0 -30 -8 -39 -18z"/>
<path d="M7148 8051 c-26 -16 -51 -39 -57 -50 -29 -54 3 -120 53 -107 24 6 81
68 105 114 10 19 9 28 -4 48 -20 31 -41 30 -97 -5z"/>
<path d="M6909 7841 c-38 -38 -39 -83 -3 -116 33 -30 38 -31 80 -4 63 39 67
78 13 124 -39 32 -54 32 -90 -4z"/>
<path d="M3051 7816 c-27 -43 -26 -52 5 -81 33 -30 67 -32 94 -5 43 43 11 120
-49 120 -23 0 -34 -8 -50 -34z"/>
<path d="M4665 7831 c-1034 -7 -958 0 -1013 -83 l-27 -42 -2 -490 c-1 -270 -2
-722 -2 -1005 l-1 -514 -189 5 c-201 5 -231 1 -295 -43 -18 -12 -48 -44 -66
-71 -29 -42 -34 -57 -34 -111 0 -94 40 -160 124 -202 41 -21 104 -24 311 -12
l146 9 7 -267 c4 -148 4 -426 0 -619 -8 -396 -8 -389 66 -470 73 -79 -18 -74
1323 -81 1358 -6 1229 -14 1322 80 32 31 55 65 63 91 9 31 12 202 12 653 l0
611 117 0 c64 0 154 -5 199 -12 73 -10 87 -10 129 6 58 23 110 67 136 117 26
51 25 137 -1 188 -24 48 -93 108 -140 122 -21 6 -115 9 -237 7 l-203 -3 -2
720 -3 720 -47 67 c-27 37 -127 140 -230 236 -101 94 -226 214 -278 267 -52
53 -107 103 -121 110 -14 7 -52 15 -85 17 -32 3 -473 2 -979 -1z m964 -156 c3
-4 4 -107 3 -229 -4 -239 1 -271 51 -324 42 -45 52 -47 322 -52 l260 -5 3
-689 2 -688 -22 6 c-13 3 -89 6 -169 6 l-145 0 -18 58 c-57 180 -184 359 -334
471 -356 263 -802 249 -1155 -37 -125 -101 -238 -256 -292 -398 l-33 -89 -167
-5 c-92 -3 -169 -3 -171 -1 -9 10 -4 1979 6 1983 19 6 1852 -1 1859 -7z m393
-466 c-150 -8 -205 -2 -223 25 -10 15 -15 65 -17 179 l-4 159 175 -179 175
-178 -106 -6z m-855 -945 c96 -20 139 -37 232 -91 162 -96 257 -195 335 -350
58 -117 79 -208 80 -353 1 -134 -12 -203 -61 -323 -59 -146 -216 -309 -368
-381 -141 -68 -197 -81 -360 -80 -126 0 -148 3 -218 27 -178 62 -321 160 -426
292 -106 133 -145 242 -157 440 -15 241 61 432 238 600 202 192 455 271 705
219z m-1444 -706 l357 -3 0 -72 0 -73 -430 0 -431 0 -24 25 c-34 33 -33 77 3
110 25 25 32 26 97 21 39 -3 231 -7 428 -8z m3112 -19 c44 -39 48 -84 11 -118
-23 -21 -30 -23 -83 -16 -32 5 -226 7 -430 6 l-373 -3 0 76 0 76 393 3 c215 1
404 3 419 5 19 1 39 -8 63 -29z m-2804 -275 l66 -7 12 -51 c34 -153 194 -363
378 -498 83 -61 235 -126 351 -150 53 -11 100 -25 104 -31 5 -7 6 -30 3 -52
-11 -96 -16 -452 -6 -476 l9 -26 -565 4 c-490 4 -569 6 -589 20 l-24 15 0 317
c-1 174 -3 457 -6 629 l-6 312 104 0 c57 0 133 -3 169 -6z m2237 -614 l-3
-620 -26 -26 -26 -26 -579 -5 c-319 -3 -575 -1 -571 3 5 5 53 11 108 14 85 5
102 9 121 28 19 18 22 32 20 75 -1 28 -3 104 -5 167 l-2 115 -105 5 c-75 4
-105 9 -104 18 1 6 2 41 3 76 l1 64 75 11 c199 29 376 127 527 290 109 119
195 263 220 369 l13 52 160 3 c88 1 163 4 168 5 4 1 6 -277 5 -618z m-1094
-389 c3 -4 0 -22 -6 -39 -10 -26 -9 -34 5 -50 38 -42 10 -79 -54 -70 -23 3
-24 6 -21 78 2 42 9 78 15 82 16 10 55 10 61 -1z"/>
<path d="M4124 7161 c-26 -11 -54 -49 -54 -71 0 -9 10 -25 23 -36 21 -19 35
-20 603 -14 554 5 583 6 603 24 26 23 27 47 3 76 l-18 22 -569 4 c-345 3 -578
1 -591 -5z"/>
<path d="M4190 6893 c-59 -3 -79 -8 -97 -25 -31 -29 -29 -62 4 -88 l28 -22
884 7 c940 6 941 6 956 54 8 27 -10 60 -41 71 -23 9 -1550 11 -1734 3z"/>
<path d="M4102 6640 c-29 -31 -28 -71 1 -98 l24 -22 897 2 c875 3 898 3 912
22 20 29 17 73 -7 97 l-22 22 -411 -8 c-475 -8 -624 -8 -1057 1 l-316 7 -21
-23z"/>
<path d="M4870 6075 c-134 -37 -269 -135 -349 -254 -91 -134 -129 -315 -98
-465 20 -96 62 -188 122 -265 127 -166 306 -249 510 -238 109 6 171 24 253 74
121 74 242 219 292 350 52 134 32 346 -46 494 -65 123 -204 242 -337 289 -82
29 -266 37 -347 15z m271 -141 c162 -37 298 -180 335 -353 19 -89 18 -144 -5
-228 -50 -193 -184 -320 -371 -354 -176 -31 -348 44 -453 198 -110 160 -124
333 -42 499 38 78 125 168 196 204 96 50 218 62 340 34z"/>
<path d="M4918 5775 c-54 -29 -104 -86 -118 -135 -24 -86 -6 -175 46 -227 l27
-27 -27 -106 c-29 -112 -28 -137 10 -146 40 -10 69 3 91 43 21 39 62 197 64
249 1 16 7 -10 14 -58 17 -116 51 -215 80 -234 13 -9 36 -14 52 -12 26 3 28 7
31 53 2 28 -2 87 -8 133 -12 79 -11 85 8 105 62 68 85 186 49 253 -62 118
-206 167 -319 109z m163 -144 c43 -43 41 -93 -7 -137 -19 -19 -41 -34 -48 -34
-7 0 -30 15 -52 34 -34 29 -39 39 -38 75 3 87 85 122 145 62z"/>
<path d="M6710 7661 c-15 -29 -12 -56 9 -82 16 -20 23 -22 47 -14 16 6 35 23
42 38 12 24 11 32 -2 53 -21 31 -80 34 -96 5z"/>
<path d="M3242 7658 c-18 -18 -14 -42 11 -66 28 -27 49 -28 70 -4 35 39 15 82
-38 82 -17 0 -36 -5 -43 -12z"/>
<path d="M3292 3703 c-18 -7 -42 -57 -42 -88 0 -35 40 -54 75 -35 33 18 59 74
46 99 -15 27 -47 37 -79 24z"/>
<path d="M6690 3680 c-27 -27 -25 -52 6 -89 39 -47 58 -54 99 -37 27 12 35 21
35 41 0 34 -26 72 -61 91 -38 19 -55 18 -79 -6z"/>
<path d="M3064 3455 c-12 -8 -27 -29 -34 -46 -13 -30 -12 -33 14 -56 37 -31
65 -26 93 16 38 56 26 101 -27 101 -14 0 -35 -7 -46 -15z"/>
<path d="M6906 3438 c-24 -34 -19 -63 15 -92 37 -31 39 -32 73 -5 50 39 24
119 -39 119 -24 0 -39 -7 -49 -22z"/>
<path d="M2861 3275 c-36 -31 -46 -57 -31 -84 20 -38 47 -44 86 -21 55 35 70
82 36 113 -26 24 -56 21 -91 -8z"/>
<path d="M7096 3278 c-25 -35 -19 -63 20 -98 59 -52 79 -57 114 -31 17 12 30
17 30 12 0 -5 -10 -17 -22 -25 l-22 -16 26 0 c45 0 51 21 22 74 -51 91 -134
133 -168 84z"/>
<path d="M2743 3173 c-16 -6 -17 -65 -1 -81 7 -7 24 -12 39 -12 32 0 46 28 29
59 -9 18 -42 43 -52 40 -2 0 -9 -3 -15 -6z"/>
<path d="M3693 2123 c-16 -3 -23 -11 -23 -28 0 -13 -3 -30 -6 -38 -7 -19 22
-47 50 -47 32 0 56 31 56 72 0 29 -5 37 -22 42 -13 3 -25 5 -28 5 -3 -1 -15
-4 -27 -6z"/>
<path d="M4761 2116 c-21 -26 -9 -69 23 -85 45 -21 79 -5 87 42 5 34 3 40 -18
48 -36 13 -79 11 -92 -5z"/>
<path d="M3849 2094 c-20 -54 16 -91 77 -79 33 6 34 7 34 55 l0 50 -50 0 c-45
0 -52 -3 -61 -26z"/>
<path d="M4053 2109 c-33 -12 -32 -67 1 -98 l25 -23 33 19 c36 21 50 71 26 90
-20 16 -61 22 -85 12z"/>
<path d="M4397 2113 c-13 -23 -15 -62 -4 -75 17 -22 71 -32 85 -16 21 26 24
64 7 82 -16 16 -80 23 -88 9z"/>
<path d="M4567 2113 c-4 -3 -7 -19 -7 -35 0 -24 6 -32 36 -44 32 -14 38 -13
60 1 18 11 24 25 24 50 l0 35 -53 0 c-30 0 -57 -3 -60 -7z"/>
<path d="M4944 2096 c-11 -45 -1 -60 43 -70 54 -11 73 3 73 55 l0 39 -55 0
c-49 0 -55 -2 -61 -24z"/>
<path d="M5138 2109 c-25 -14 -24 -65 1 -79 11 -5 36 -10 56 -10 l36 0 -3 48
c-3 46 -4 47 -38 49 -19 2 -43 -2 -52 -8z"/>
<path d="M5310 2099 c-16 -29 -4 -68 24 -80 16 -8 22 -17 19 -30 -8 -28 25
-24 36 4 5 13 16 29 25 36 19 16 21 62 4 79 -7 7 -31 12 -55 12 -33 0 -45 -5
-53 -21z"/>
<path d="M5522 2108 c-7 -7 -12 -27 -12 -45 0 -43 42 -68 89 -52 27 10 31 16
31 48 0 46 -14 61 -60 61 -20 0 -41 -5 -48 -12z"/>
<path d="M5743 2113 c-16 -6 -17 -89 -3 -98 6 -4 29 -4 50 0 l40 7 0 49 0 49
-37 -1 c-21 0 -44 -3 -50 -6z"/>
<path d="M5931 2107 c-6 -8 -14 -28 -17 -44 -5 -26 -3 -31 19 -37 14 -3 39 -3
56 0 27 6 31 10 31 40 0 28 -5 36 -26 44 -34 13 -49 13 -63 -3z"/>
<path d="M6110 2094 c-14 -36 3 -54 49 -54 44 0 57 8 70 42 12 32 1 38 -65 38
-39 0 -46 -3 -54 -26z"/>
<path d="M4227 2104 c-4 -4 -7 -24 -7 -45 0 -28 5 -39 19 -44 32 -10 71 5 77
30 11 45 2 60 -41 63 -23 2 -44 0 -48 -4z"/>
<path d="M7143 1993 c-21 -8 -16 -81 5 -92 28 -15 62 13 62 49 0 38 -32 58
-67 43z"/>
<path d="M2254 1965 c-31 -48 16 -106 56 -70 24 22 26 58 4 79 -22 23 -41 20
-60 -9z"/>
<path d="M2616 1974 c-13 -34 -6 -73 15 -84 27 -15 47 -6 59 26 8 20 7 32 -5
50 -18 27 -60 32 -69 8z"/>
<path d="M2790 1971 c-15 -29 -12 -49 10 -71 24 -24 34 -25 54 -4 19 18 21 65
4 82 -18 18 -56 14 -68 -7z"/>
<path d="M2972 1978 c-7 -7 -12 -27 -12 -45 0 -26 6 -36 25 -45 33 -15 55 4
55 46 0 35 -15 56 -40 56 -9 0 -21 -5 -28 -12z"/>
<path d="M3700 1976 c0 -24 12 -46 21 -40 15 9 10 54 -6 54 -8 0 -15 -6 -15
-14z"/>
<path d="M3890 1979 c0 -5 5 -7 10 -4 6 3 10 8 10 11 0 2 -4 4 -10 4 -5 0 -10
-5 -10 -11z"/>
<path d="M4773 1975 c-9 -25 4 -29 17 -6 7 15 7 21 0 21 -6 0 -13 -7 -17 -15z"/>
<path d="M5163 1983 c-18 -7 -16 -28 3 -43 12 -11 18 -10 31 3 28 27 4 56 -34
40z"/>
<path d="M5744 1976 c-6 -17 12 -56 27 -56 17 0 32 52 17 62 -20 12 -38 10
-44 -6z"/>
<path d="M6812 1978 c-25 -25 -5 -98 28 -98 22 0 41 34 38 69 -3 30 -7 36 -28
39 -14 2 -31 -3 -38 -10z"/>
<path d="M6969 1963 c-23 -60 26 -109 63 -63 10 12 18 29 18 37 0 54 -62 74
-81 26z"/>
<path d="M7294 1966 c-8 -33 3 -64 26 -71 28 -9 60 12 60 40 0 43 -10 55 -46
55 -27 0 -35 -5 -40 -24z"/>
<path d="M7482 1978 c-20 -20 -14 -65 10 -82 19 -13 25 -14 43 -2 23 16 32 61
14 82 -14 17 -51 18 -67 2z"/>
<path d="M2442 1933 c3 -41 6 -48 26 -51 31 -5 52 15 52 47 0 35 -17 51 -53
51 -27 0 -28 -1 -25 -47z"/>
<path d="M3147 1974 c-15 -16 -7 -69 13 -82 32 -20 62 4 58 48 -3 31 -7 35
-33 38 -17 2 -34 0 -38 -4z"/>
<path d="M3315 1960 c-9 -27 1 -53 26 -68 18 -11 24 -11 40 4 22 19 25 54 7
72 -20 20 -66 15 -73 -8z"/>
<path d="M5930 1961 c0 -52 43 -72 59 -28 12 32 3 47 -30 47 -22 0 -29 -5 -29
-19z"/>
<path d="M6114 1966 c-11 -28 1 -51 25 -51 28 0 47 25 38 49 -8 20 -56 21 -63
2z"/>
<path d="M6287 1958 c-8 -29 10 -50 41 -46 57 7 55 68 -2 68 -26 0 -35 -5 -39
-22z"/>
<path d="M6467 1973 c-4 -3 -7 -19 -7 -34 0 -31 28 -53 54 -43 18 7 31 47 22
69 -5 15 -57 21 -69 8z"/>
<path d="M6637 1974 c-25 -25 14 -101 46 -89 19 8 31 42 25 72 -3 18 -56 31
-71 17z"/>
<path d="M7743 1973 c-7 -2 -13 -14 -13 -26 0 -21 -1 -21 -20 3 -16 21 -20 23
-25 8 -17 -44 50 -81 108 -59 33 13 36 44 5 65 -23 16 -34 18 -55 9z"/>
<path d="M3506 1955 c-11 -29 -6 -44 18 -60 36 -24 68 -5 64 38 -3 29 -7 32
-39 35 -26 2 -38 -1 -43 -13z"/>
</g>
</svg>
